name GIL02_xslow2.mot
datacolumns 153
datarows 4
range 1.58333313 1.60833323
endheader

                time	           pelvis_tx	           pelvis_ty	           pelvis_tz	         pelvis_tilt	         pelvis_list	     pelvis_rotation	       hip_flexion_r	     hip_adduction_r	      hip_rotation_r	        knee_angle_r	       ankle_angle_r	    subtalar_angle_r	         mtp_angle_r	       hip_flexion_l	     hip_adduction_l	      hip_rotation_l	        knee_angle_l	       ankle_angle_l	    subtalar_angle_l	         mtp_angle_l	    lumbar_extension	      lumbar_bending	     lumbar_rotation	     ground_force_vx	     ground_force_vy	     ground_force_vz	     ground_force_px	     ground_force_py	     ground_force_pz	     ground_force_vx	     ground_force_vy	     ground_force_vz	     ground_force_px	     ground_force_py	     ground_force_pz	     ground_torque_x	     ground_torque_y	     ground_torque_z	     ground_torque_x	     ground_torque_y	     ground_torque_z	    ground_marker_px	    ground_marker_py	    ground_marker_pz	    ground_marker_px	    ground_marker_py	    ground_marker_pz	    ground_marker_px	    ground_marker_py	    ground_marker_pz	    ground_marker_px	    ground_marker_py	    ground_marker_pz	    ground_marker_px	    ground_marker_py	    ground_marker_pz	    ground_marker_px	    ground_marker_py	    ground_marker_pz	    ground_marker_px	    ground_marker_py	    ground_marker_pz	    ground_marker_px	    ground_marker_py	    ground_marker_pz	    ground_marker_px	    ground_marker_py	    ground_marker_pz	    ground_marker_px	    ground_marker_py	    ground_marker_pz	    ground_marker_px	    ground_marker_py	    ground_marker_pz	    ground_marker_px	    ground_marker_py	    ground_marker_pz	    ground_marker_px	    ground_marker_py	    ground_marker_pz	    ground_marker_px	    ground_marker_py	    ground_marker_pz	    ground_marker_px	    ground_marker_py	    ground_marker_pz	    ground_marker_px	    ground_marker_py	    ground_marker_pz	    ground_marker_px	    ground_marker_py	    ground_marker_pz	    ground_marker_px	    ground_marker_py	    ground_marker_pz	    ground_marker_px	    ground_marker_py	    ground_marker_pz	    ground_marker_px	    ground_marker_py	    ground_marker_pz	    ground_marker_px	    ground_marker_py	    ground_marker_pz	    ground_marker_px	    ground_marker_py	    ground_marker_pz	    ground_marker_px	    ground_marker_py	    ground_marker_pz	    ground_marker_px	    ground_marker_py	    ground_marker_pz	    ground_marker_px	    ground_marker_py	    ground_marker_pz	    ground_marker_px	    ground_marker_py	    ground_marker_pz	    ground_marker_px	    ground_marker_py	    ground_marker_pz	    ground_marker_px	    ground_marker_py	    ground_marker_pz	    ground_marker_px	    ground_marker_py	    ground_marker_pz	    ground_marker_px	    ground_marker_py	    ground_marker_pz	    ground_marker_px	    ground_marker_py	    ground_marker_pz	    ground_marker_px	    ground_marker_py	    ground_marker_pz	    ground_marker_px	    ground_marker_py	    ground_marker_pz	    ground_marker_px	    ground_marker_py	    ground_marker_pz	    ground_marker_px	    ground_marker_py	    ground_marker_pz	    ground_marker_px	    ground_marker_py	    ground_marker_pz	    ground_marker_px	    ground_marker_py	    ground_marker_pz	
          1.58333313	          2.06217909	          0.96327877	         -0.24320418	         -0.41757774	          1.36652339	          3.80727220	          5.32482529	         -0.04982614	          9.25888824	        -12.16161251	          7.48987675	          0.00000000	          0.00000000	         15.38138008	          2.60108566	          3.62326550	        -44.16823959	          3.40295649	          0.00000000	          0.00000000	        -11.25695229	          2.18666267	         -4.64907694	        -19.59973677	        642.10046486	        -10.70318900	          2.00514136	          0.00000000	         -0.21071489	          0.00000000	          0.00000000	          0.00000000	          1.67837317	          0.00000000	         -0.30361252	          0.00000000	          1.21735815	          0.00000000	          0.00000000	          0.00000000	          0.00000000	          1.97875309	          0.89766121	         -0.23745167	          1.97976506	          0.87408805	         -0.16622134	          1.97077990	          0.87973177	         -0.31627598	          2.01429176	          0.47025523	         -0.18312363	          2.08035636	          0.47257450	         -0.31896770	          1.95774174	          0.06857379	         -0.21354078	          1.88877749	          0.12843551	         -0.32604271	          2.06217909	          0.96327877	         -0.24320418	          2.06927228	          0.95882362	         -0.12474956	          2.05508614	          0.96773398	         -0.36165878	          1.87807286	          1.00457454	         -0.19826671	          1.87608731	          1.00339198	         -0.28390482	          2.02709770	          0.46896157	         -0.12605712	          2.08111382	          0.47316176	         -0.37695980	          1.97721970	          0.47463626	         -0.23582993	          2.08650756	          0.44790509	         -0.26400062	          1.95189989	          0.06640422	         -0.17402917	          1.86859965	          0.14030956	         -0.35723346	          1.96437800	          0.08334374	         -0.24277332	          1.90234232	          0.13842286	         -0.29966453	          1.88236511	          1.42942512	         -0.20869592	          2.00890517	          1.34465837	         -0.16721863	          2.01178050	          1.35087502	         -0.27239081	          1.99360549	          1.35644996	         -0.21683674	          2.06672788	          1.18944049	         -0.23647155	          2.06956697	          0.56493443	         -0.05160233	          2.21806169	          0.58256322	         -0.33162969	          2.07272792	          0.63428670	         -0.11229207	          2.13573575	          0.61720800	         -0.36665386	          2.06772232	          0.55011696	         -0.14387248	          2.13419580	          0.52842194	         -0.36189249	          2.00349617	          0.18618652	         -0.08203927	          1.94497728	          0.25883275	         -0.44015849	          1.97587049	          0.16194932	         -0.15433758	          1.91978943	          0.22819719	         -0.36898932	          2.08182192	          0.03844905	         -0.20558231	          1.97742879	          0.05546669	         -0.35352558	
          1.59166646	          2.06471658	          0.96318936	         -0.24292208	         -0.41693592	          1.47934163	          3.81668186	          5.12801361	         -0.11685193	          9.46885014	        -12.14516735	          7.67028570	          0.00000000	          0.00000000	         15.89632988	          2.76853967	          3.57064295	        -43.17122650	          4.07053232	          0.00000000	          0.00000000	        -11.28595829	          2.02560377	         -4.89092350	        -18.14900725	        643.78904371	        -10.78720225	          2.00513782	          0.00000000	         -0.21103563	          0.00000000	          0.00000000	          0.00000000	          1.67883264	          0.00000000	         -0.30297809	          0.00000000	          1.27210242	          0.00000000	          0.00000000	          0.00000000	          0.00000000	          1.98189545	          0.89814091	         -0.23779060	          1.98228359	          0.87384683	         -0.16613573	          1.97333777	          0.87978417	         -0.31618139	          2.01545310	          0.47003144	         -0.18326333	          2.08669305	          0.47340146	         -0.31858993	          1.95761621	          0.06865738	         -0.21375613	          1.90425396	          0.12417436	         -0.32616299	          2.06471658	          0.96318936	         -0.24292208	          2.07177711	          0.95850319	         -0.12449687	          2.05765605	          0.96787548	         -0.36134729	          1.88069534	          1.00442505	         -0.19808078	          1.87864769	          1.00333536	         -0.28388575	          2.02844977	          0.46868038	         -0.12624128	          2.08747411	          0.47396299	         -0.37658194	          1.97936642	          0.47372523	         -0.23569910	          2.09371471	          0.44824716	         -0.26406282	          1.95193827	          0.06647207	         -0.17422153	          1.88389266	          0.13548951	         -0.35744220	          1.96382678	          0.08328679	         -0.24314944	          1.91800499	          0.13458785	         -0.29989350	          1.88565290	          1.42935061	         -0.20860451	          2.01181054	          1.34468222	         -0.16721995	          2.01507401	          1.35068977	         -0.27181572	          1.99687338	          1.35633624	         -0.21660315	          2.06974149	          1.18927991	         -0.23570929	          2.07146621	          0.56459516	         -0.05191065	          2.22287178	          0.58475441	         -0.33120671	          2.07393074	          0.63386160	         -0.11233815	          2.14031982	          0.61851466	         -0.36599055	          2.06952834	          0.55000412	         -0.14386450	          2.14016032	          0.53010809	         -0.36161900	          2.00426698	          0.18592504	         -0.08235584	          1.95741785	          0.25591898	         -0.44019830	          1.97648835	          0.16183008	         -0.15432060	          1.93317056	          0.22493982	         -0.36935630	          2.08180690	          0.03848301	         -0.20560853	          1.99561882	          0.05461239	         -0.35390010	
          1.59999979	          2.06725454	          0.96307802	         -0.24267229	         -0.40959740	          1.59392083	          3.82571697	          4.91816711	         -0.18670397	          9.67055225	        -12.12732410	          7.90749359	          0.00000000	          0.00000000	         16.37480164	          2.93556309	          3.54642701	        -42.11123657	          4.62900734	          0.00000000	          0.00000000	        -11.44627380	          1.79402328	         -4.96980953	        -16.71618139	        645.20934589	        -10.84877015	          2.00512158	          0.00000000	         -0.21132614	          0.00000000	          0.00000000	          0.00000000	          1.67937793	          0.00000000	         -0.30229047	          0.00000000	          1.31991138	          0.00000000	          0.00000000	          0.00000000	          0.00000000	          1.98428750	          0.89779961	         -0.23800378	          1.98481238	          0.87357217	         -0.16608636	          1.97590721	          0.87980646	         -0.31612241	          2.01658154	          0.46978199	         -0.18342584	          2.09282351	          0.47417381	         -0.31824058	          1.95743287	          0.06866758	         -0.21394193	          1.91989517	          0.12006231	         -0.32628292	          2.06725454	          0.96307802	         -0.24267229	          2.07428360	          0.95815718	         -0.12424736	          2.06022573	          0.96799880	         -0.36109722	          1.88333142	          1.00421453	         -0.19789436	          1.88127208	          1.00323153	         -0.28380269	          2.02976036	          0.46837208	         -0.12644707	          2.09365797	          0.47471711	         -0.37623203	          1.98000348	          0.47329301	         -0.23508887	          2.10133457	          0.44815183	         -0.26415235	          1.95192218	          0.06647072	         -0.17438431	          1.89935875	          0.13080353	         -0.35764980	          1.96363163	          0.08326447	         -0.24332285	          1.93306410	          0.13105057	         -0.29996112	          1.88939810	          1.42929864	         -0.20863439	          2.01500583	          1.34472334	         -0.16688327	          2.01836443	          1.35047948	         -0.27164820	          2.00013709	          1.35619342	         -0.21637191	          2.07269955	          1.18905139	         -0.23503004	          2.07334971	          0.56424677	         -0.05218228	          2.22755218	          0.58688027	         -0.33073410	          2.07573009	          0.63337398	         -0.11274801	          2.14477205	          0.61968738	         -0.36515203	          2.07089996	          0.54966050	         -0.14391398	          2.14625120	          0.53149974	         -0.36126626	          2.00500727	          0.18567300	         -0.08264942	          1.96989417	          0.25307897	         -0.44025239	          1.97732222	          0.16174620	         -0.15439634	          1.94676125	          0.22149508	         -0.36956316	          2.08180928	          0.03855072	         -0.20560192	          2.01378322	          0.05388285	         -0.35410082	
          1.60833323	          2.06979752	          0.96295524	         -0.24246022	         -0.39336681	          1.70232832	          3.82992601	          4.69693375	         -0.25081554	          9.85491657	        -12.11412621	          8.19557571	          0.00000000	          0.00000000	         16.81685448	          3.09302783	          3.54878378	        -40.99463272	          5.08105898	          0.00000000	          0.00000000	        -11.59334183	          1.66675925	         -5.11699820	        -15.29625875	        646.43775428	        -10.80742239	          2.00509265	          0.00000000	         -0.21160329	          0.00000000	          0.00000000	          0.00000000	          1.68003149	          0.00000000	         -0.30154654	          0.00000000	          1.37022717	          0.00000000	          0.00000000	          0.00000000	          0.00000000	          1.98702812	          0.89763939	         -0.23797265	          1.98735523	          0.87328333	         -0.16606885	          1.97849846	          0.87979472	         -0.31609598	          2.01770473	          0.46951604	         -0.18360575	          2.09877133	          0.47488561	         -0.31791738	          1.95720363	          0.06860691	         -0.21409553	          1.93568540	          0.11611432	         -0.32639393	          2.06979752	          0.96295524	         -0.24246022	          2.07679009	          0.95781457	         -0.12401545	          2.06280518	          0.96809596	         -0.36090499	          1.88597071	          1.00395274	         -0.19771110	          1.88393247	          1.00308728	         -0.28366908	          2.03104663	          0.46804583	         -0.12666643	          2.09968662	          0.47541836	         -0.37590772	          1.97986364	          0.47351366	         -0.23484042	          2.10629869	          0.44861421	         -0.26452518	          1.95185244	          0.06640439	         -0.17451634	          1.91497445	          0.12627183	         -0.35784039	          1.96355760	          0.08321637	         -0.24338581	          1.94786549	          0.12740606	         -0.29980689	          1.89302170	          1.42925608	         -0.20845759	          2.01827025	          1.34445250	         -0.16645518	          2.02189994	          1.35012507	         -0.27171549	          2.00340486	          1.35604990	         -0.21614158	          2.07574058	          1.18858457	         -0.23456803	          2.07520771	          0.56390047	         -0.05241514	          2.23210645	          0.58892691	         -0.33021435	          2.07792211	          0.63292986	         -0.11318546	          2.14936996	          0.62072009	         -0.36469612	          2.07203817	          0.54889059	         -0.14434296	          2.15120149	          0.53253847	         -0.36115420	          2.00569916	          0.18544044	         -0.08291437	          1.98237288	          0.25033620	         -0.44030392	          1.97807693	          0.16168016	         -0.15454295	          1.95919871	          0.21805276	         -0.36965626	          2.08181572	          0.03864400	         -0.20557311	          2.03189230	          0.05328532	         -0.35413468	
